<svg width="31" height="24" viewBox="0 0 31 24" fill="none" xmlns="http://www.w3.org/2000/svg">
<path d="M8.10526 4.6152V5.6152C8.43447 5.6152 8.74258 5.45318 8.92916 5.18195L8.10526 4.6152ZM10.5921 1V0C10.2629 0 9.95479 0.162027 9.76821 0.433256L10.5921 1ZM19.8289 1L20.6528 0.433256C20.4663 0.162027 20.1582 0 19.8289 0V1ZM22.3158 4.6152L21.4919 5.18195C21.6785 5.45318 21.9866 5.6152 22.3158 5.6152V4.6152ZM2 19.9798V7.62787H0V19.9798H2ZM4.55263 5.6152H8.10526V3.6152H4.55263V5.6152ZM8.92916 5.18195L11.416 1.56674L9.76821 0.433256L7.28137 4.04846L8.92916 5.18195ZM10.5921 2H19.8289V0H10.5921V2ZM19.0051 1.56674L21.4919 5.18195L23.1397 4.04846L20.6528 0.433256L19.0051 1.56674ZM22.3158 5.6152H25.8684V3.6152H22.3158V5.6152ZM28.4211 7.62787V19.9798H30.4211V7.62787H28.4211ZM28.4211 19.9798C28.4211 20.9432 27.4391 21.9925 25.8684 21.9925V23.9925C28.2219 23.9925 30.4211 22.3442 30.4211 19.9798H28.4211ZM25.8684 5.6152C27.4391 5.6152 28.4211 6.66452 28.4211 7.62787H30.4211C30.4211 5.26352 28.2219 3.6152 25.8684 3.6152V5.6152ZM2 7.62787C2 6.66452 2.98195 5.6152 4.55263 5.6152V3.6152C2.19919 3.6152 0 5.26352 0 7.62787H2ZM4.55263 21.9925C2.98195 21.9925 2 20.9432 2 19.9798H0C0 22.3442 2.19919 23.9925 4.55263 23.9925V21.9925ZM19.5395 13.0507C19.5395 14.846 17.7622 16.5697 15.2105 16.5697V18.5697C18.545 18.5697 21.5395 16.247 21.5395 13.0507H19.5395ZM15.2105 16.5697C12.6588 16.5697 10.8816 14.846 10.8816 13.0507H8.88158C8.88158 16.247 11.8761 18.5697 15.2105 18.5697V16.5697ZM10.8816 13.0507C10.8816 11.2554 12.6588 9.53167 15.2105 9.53167V7.53167C11.8761 7.53167 8.88158 9.8544 8.88158 13.0507H10.8816ZM15.2105 9.53167C17.7622 9.53167 19.5395 11.2554 19.5395 13.0507H21.5395C21.5395 9.8544 18.545 7.53167 15.2105 7.53167V9.53167ZM25.8684 21.9925H4.55263V23.9925H25.8684V21.9925Z" fill="#69B7FF"/>
</svg>
